<svg id="Capa_1" enable-background="new 0 0 512 512" height="512" viewBox="0 0 512 512" width="512" xmlns="http://www.w3.org/2000/svg"><g><path d="m376 301h-120-120c-57.891 0-105 47.109-105 105v91c0 8.291 6.709 15 15 15h90l30-30h90 90l30 30h90c8.291 0 15-6.709 15-15v-91c0-57.891-47.109-105-105-105z" fill="#f66"/><path d="m376 512h90c8.291 0 15-6.709 15-15v-91c0-57.891-47.109-105-105-105h-120v181h90z" fill="#e64551"/><path d="m376 391h-105l-15 30-15-30h-105c-8.291 0-15 6.709-15 15v91c0 8.291 6.709 15 15 15h120 120c8.291 0 15-6.709 15-15v-91c0-8.291-6.709-15-15-15z" fill="#ffd34d"/><path d="m391 497v-91c0-8.291-6.709-15-15-15h-105l-15 30v91h120c8.291 0 15-6.709 15-15z" fill="#fb3"/><path d="m256 391h-15v45c0 8.291 6.709 15 15 15s15-6.709 15-15v-45z" fill="#fb3"/><path d="m271 436v-45h-15v60c8.291 0 15-6.709 15-15z" fill="#ff8b17"/><path d="m301 203.09h-45-45c-8.291 0-15 6.709-15 15v97.91c0 27.861 19.395 30 44.736 30h15.264 15.264c14.18 0 24.492-.688 32.168-4.585 8.466-4.38 12.568-12.7 12.568-25.415v-97.91c0-8.291-6.709-15-15-15z" fill="#fb9"/><path d="m303.432 341.415c8.466-4.38 12.568-12.7 12.568-25.415v-97.91c0-8.291-6.709-15-15-15h-45v142.91h15.264c14.179 0 24.492-.688 32.168-4.585z" fill="#ff9680"/><path d="m256 90h-90v106c0 49.629 40.371 90 90 90s90-40.371 90-90v-106z" fill="#ffd9b3"/><path d="m346 196v-106h-90v196c49.629 0 90-40.371 90-90z" fill="#fb9"/><path d="m256 0c-41.133 0-88.711 6.592-90 57.729v17.271l32.397 15h57.603 65.319l24.681-15v-17.021c-1.289-51.387-48.867-57.979-90-57.979z" fill="#f66"/><path d="m346 75v-17.021c-1.289-51.387-48.867-57.979-90-57.979v90h65.319z" fill="#e64551"/><path d="m256 75h-90v15c0 24.853 20.147 45 45 45h45 45c24.853 0 45-20.147 45-45v-15z" fill="#3f6a73"/><path d="m346 90v-15h-90v60h45c24.853 0 45-20.147 45-45z" fill="#285059"/></g></svg>